# xmcd
#
# Track frame offsets: 
#        150
#        23752
#        43459
#        78445
#        102510
#        124279
#        145414
#        172819
#        201279
#        226482
#        258179
#        278924
#
# Disc length: 4207 seconds
#
# Revision: 0
# Processed by: cddbd v1.5.2PL0 Copyright (c) Steve Scherf et al.
# Submitted via: ExactAudioCopy v0.99pb5
#
DISCID=ac106d0c
DTITLE=Stefan Waggershausen - So ist das Spiel
DYEAR=2011
DGENRE=Blues
TTITLE0=Sonne im Westen
TTITLE1=Der alte Wolf wird langsam grau
TTITLE2=Dein Laecheln beim Abschied
TTITLE3=Was soll ich jetzt sagen
TTITLE4=Fuer dich
TTITLE5=Ich will zurueck zum Bodensee
TTITLE6=Endloser Sommer
TTITLE7=1000 Kuesse leicht
TTITLE8=So ist das Spiel
TTITLE9=Die Zeit wartet niemals
TTITLE10=Und sie sahen sich nur an
TTITLE11=Babylon Avenue
EXTD=
EXTT0=
EXTT1=
EXTT2=
EXTT3=
EXTT4=
EXTT5=
EXTT6=
EXTT7=
EXTT8=
EXTT9=
EXTT10=
EXTT11=
PLAYORDER=
